<mxfile host="Electron" agent="Mozilla/5.0 (Windows NT 10.0; Win64; x64) AppleWebKit/537.36 (KHTML, like Gecko) draw.io/26.2.15 Chrome/134.0.6998.205 Electron/35.2.1 Safari/537.36" version="26.2.15" pages="4">
  <diagram name="deployment" id="NG4J79u5cp21b7b6BKnX">
    <mxGraphModel dx="386" dy="116" grid="1" gridSize="10" guides="1" tooltips="1" connect="1" arrows="1" fold="1" page="0" pageScale="1" pageWidth="827" pageHeight="1169" math="0" shadow="0">
      <root>
        <mxCell id="0" />
        <mxCell id="1" parent="0" />
        <mxCell id="p21Or1WGTQ5efiI6KWDO-140" value="" style="shape=folder;fontStyle=1;spacingTop=10;tabWidth=40;tabHeight=14;tabPosition=left;html=1;whiteSpace=wrap;align=left;verticalAlign=middle;fontFamily=Helvetica;fontSize=12;labelBackgroundColor=none;resizable=1;fillColor=#d5e8d4;strokeColor=#82b366;" parent="1" vertex="1">
          <mxGeometry x="750" y="520" width="620" height="370" as="geometry" />
        </mxCell>
        <mxCell id="p21Or1WGTQ5efiI6KWDO-1" value="" style="verticalAlign=top;align=left;spacingTop=8;spacingLeft=2;spacingRight=12;shape=cube;size=10;direction=south;fontStyle=5;html=1;whiteSpace=wrap;fillColor=#CC99FF;fontSize=12;" parent="1" vertex="1">
          <mxGeometry x="425" y="590" width="240" height="260" as="geometry" />
        </mxCell>
        <mxCell id="p21Or1WGTQ5efiI6KWDO-4" value="&lt;span style=&quot;font-weight: normal;&quot;&gt;&amp;lt;&amp;lt;device&amp;gt;&amp;gt;&lt;/span&gt;&lt;div&gt;digital ocean droplet&amp;nbsp;&lt;/div&gt;" style="text;html=1;align=center;verticalAlign=middle;whiteSpace=wrap;rounded=0;fontStyle=1;fontSize=12;" parent="1" vertex="1">
          <mxGeometry x="455" y="610" width="170" height="30" as="geometry" />
        </mxCell>
        <mxCell id="p21Or1WGTQ5efiI6KWDO-5" value="" style="verticalAlign=top;align=left;spacingTop=8;spacingLeft=2;spacingRight=12;shape=cube;size=10;direction=south;fontStyle=5;html=1;whiteSpace=wrap;fillColor=#FFCE9F;fontSize=12;" parent="1" vertex="1">
          <mxGeometry x="435" y="650" width="210" height="190" as="geometry" />
        </mxCell>
        <mxCell id="p21Or1WGTQ5efiI6KWDO-6" value="&lt;span style=&quot;font-weight: normal;&quot;&gt;&amp;lt;&amp;lt;OS&amp;gt;&amp;gt;&lt;/span&gt;&lt;div&gt;Ubuntu 22.04&amp;nbsp;&lt;/div&gt;" style="text;html=1;align=center;verticalAlign=middle;whiteSpace=wrap;rounded=0;fontStyle=1;fontSize=12;" parent="1" vertex="1">
          <mxGeometry x="455" y="670" width="170" height="30" as="geometry" />
        </mxCell>
        <mxCell id="p21Or1WGTQ5efiI6KWDO-7" value="" style="verticalAlign=top;align=left;spacingTop=8;spacingLeft=2;spacingRight=12;shape=cube;size=10;direction=south;fontStyle=5;html=1;whiteSpace=wrap;fillColor=#66B2FF;fontSize=12;" parent="1" vertex="1">
          <mxGeometry x="445" y="710" width="180" height="120" as="geometry" />
        </mxCell>
        <mxCell id="p21Or1WGTQ5efiI6KWDO-8" value="&lt;span style=&quot;font-weight: normal;&quot;&gt;&amp;lt;&amp;lt;execution environment&amp;gt;&amp;gt;&lt;/span&gt;&lt;div&gt;:docker container&lt;/div&gt;" style="text;html=1;align=center;verticalAlign=middle;whiteSpace=wrap;rounded=0;fontStyle=1;fontSize=12;" parent="1" vertex="1">
          <mxGeometry x="445" y="730" width="170" height="30" as="geometry" />
        </mxCell>
        <mxCell id="p21Or1WGTQ5efiI6KWDO-10" value=":MiniTwit.Client" style="html=1;dropTarget=0;whiteSpace=wrap;fillColor=#B3B3B3;fontStyle=1;fontSize=12;" parent="1" vertex="1">
          <mxGeometry x="465" y="765" width="130" height="60" as="geometry" />
        </mxCell>
        <mxCell id="p21Or1WGTQ5efiI6KWDO-11" value="" style="shape=module;jettyWidth=8;jettyHeight=4;fontStyle=1;fontSize=12;" parent="p21Or1WGTQ5efiI6KWDO-10" vertex="1">
          <mxGeometry x="1" width="20" height="20" relative="1" as="geometry">
            <mxPoint x="-27" y="7" as="offset" />
          </mxGeometry>
        </mxCell>
        <mxCell id="p21Or1WGTQ5efiI6KWDO-144" value="&lt;div style=&quot;font-weight: 700;&quot;&gt;&lt;br&gt;&lt;/div&gt;" style="edgeStyle=none;shape=connector;rounded=0;orthogonalLoop=1;jettySize=auto;html=1;strokeColor=default;strokeWidth=2;align=center;verticalAlign=middle;fontFamily=Helvetica;fontSize=12;fontColor=default;labelBackgroundColor=none;resizable=0;startFill=0;endArrow=none;exitX=0.592;exitY=0.004;exitDx=0;exitDy=0;exitPerimeter=0;" parent="1" source="p21Or1WGTQ5efiI6KWDO-29" target="p21Or1WGTQ5efiI6KWDO-90" edge="1">
          <mxGeometry x="-0.0455" y="24" relative="1" as="geometry">
            <mxPoint as="offset" />
          </mxGeometry>
        </mxCell>
        <mxCell id="p21Or1WGTQ5efiI6KWDO-145" value="&lt;font&gt;2&lt;/font&gt;" style="edgeLabel;html=1;align=center;verticalAlign=middle;resizable=0;points=[];fontFamily=Helvetica;fontSize=12;fontColor=default;labelBackgroundColor=none;fillColor=none;gradientColor=none;" parent="p21Or1WGTQ5efiI6KWDO-144" connectable="0" vertex="1">
          <mxGeometry x="0.4128" y="-2" relative="1" as="geometry">
            <mxPoint x="8" y="14" as="offset" />
          </mxGeometry>
        </mxCell>
        <mxCell id="p21Or1WGTQ5efiI6KWDO-146" value="1" style="edgeLabel;html=1;align=center;verticalAlign=middle;resizable=0;points=[];fontFamily=Helvetica;fontSize=12;fontColor=default;labelBackgroundColor=none;fillColor=none;gradientColor=none;" parent="p21Or1WGTQ5efiI6KWDO-144" connectable="0" vertex="1">
          <mxGeometry x="-0.4938" y="-2" relative="1" as="geometry">
            <mxPoint x="-8" y="14" as="offset" />
          </mxGeometry>
        </mxCell>
        <mxCell id="p21Or1WGTQ5efiI6KWDO-29" value="" style="verticalAlign=top;align=left;spacingTop=8;spacingLeft=2;spacingRight=12;shape=cube;size=10;direction=south;fontStyle=5;html=1;whiteSpace=wrap;fillColor=#CC99FF;fontSize=12;" parent="1" vertex="1">
          <mxGeometry x="785" y="590" width="230" height="260" as="geometry" />
        </mxCell>
        <mxCell id="p21Or1WGTQ5efiI6KWDO-30" value="&lt;span style=&quot;font-weight: normal;&quot;&gt;&amp;lt;&amp;lt;device&amp;gt;&amp;gt;&lt;/span&gt;&lt;div&gt;digital ocean droplet&amp;nbsp;&lt;/div&gt;" style="text;html=1;align=center;verticalAlign=middle;whiteSpace=wrap;rounded=0;fontStyle=1;fontSize=12;" parent="1" vertex="1">
          <mxGeometry x="805" y="610" width="170" height="30" as="geometry" />
        </mxCell>
        <mxCell id="p21Or1WGTQ5efiI6KWDO-31" value="" style="verticalAlign=top;align=left;spacingTop=8;spacingLeft=2;spacingRight=12;shape=cube;size=10;direction=south;fontStyle=5;html=1;whiteSpace=wrap;fillColor=#FFCE9F;fontSize=12;" parent="1" vertex="1">
          <mxGeometry x="795" y="650" width="200" height="190" as="geometry" />
        </mxCell>
        <mxCell id="p21Or1WGTQ5efiI6KWDO-32" value="&lt;span style=&quot;font-weight: normal;&quot;&gt;&amp;lt;&amp;lt;OS&amp;gt;&amp;gt;&lt;/span&gt;&lt;div&gt;Ubuntu 22.04&amp;nbsp;&lt;/div&gt;" style="text;html=1;align=center;verticalAlign=middle;whiteSpace=wrap;rounded=0;fontStyle=1;fontSize=12;" parent="1" vertex="1">
          <mxGeometry x="805" y="670" width="170" height="30" as="geometry" />
        </mxCell>
        <mxCell id="p21Or1WGTQ5efiI6KWDO-33" value="" style="verticalAlign=top;align=left;spacingTop=8;spacingLeft=2;spacingRight=12;shape=cube;size=10;direction=south;fontStyle=5;html=1;whiteSpace=wrap;fillColor=#66B2FF;fontSize=12;" parent="1" vertex="1">
          <mxGeometry x="805" y="710" width="170" height="120" as="geometry" />
        </mxCell>
        <mxCell id="p21Or1WGTQ5efiI6KWDO-34" value="&lt;span style=&quot;font-weight: normal;&quot;&gt;&amp;lt;&amp;lt;execution environment&amp;gt;&amp;gt;&lt;/span&gt;&lt;div&gt;:docker swarm leader&lt;/div&gt;" style="text;html=1;align=center;verticalAlign=middle;whiteSpace=wrap;rounded=0;fontStyle=1;fontSize=12;" parent="1" vertex="1">
          <mxGeometry x="795" y="730" width="170" height="30" as="geometry" />
        </mxCell>
        <mxCell id="p21Or1WGTQ5efiI6KWDO-35" value="Manager" style="html=1;dropTarget=0;whiteSpace=wrap;fillColor=#B3B3B3;fontStyle=1;fontSize=12;" parent="1" vertex="1">
          <mxGeometry x="825" y="765" width="130" height="60" as="geometry" />
        </mxCell>
        <mxCell id="p21Or1WGTQ5efiI6KWDO-36" value="" style="shape=module;jettyWidth=8;jettyHeight=4;fontStyle=1;fontSize=12;" parent="p21Or1WGTQ5efiI6KWDO-35" vertex="1">
          <mxGeometry x="1" width="20" height="20" relative="1" as="geometry">
            <mxPoint x="-27" y="7" as="offset" />
          </mxGeometry>
        </mxCell>
        <mxCell id="p21Or1WGTQ5efiI6KWDO-85" value="" style="verticalAlign=top;align=left;spacingTop=8;spacingLeft=2;spacingRight=12;shape=cube;size=10;direction=south;fontStyle=5;html=1;whiteSpace=wrap;fillColor=#CC99FF;fontSize=12;" parent="1" vertex="1">
          <mxGeometry x="1100" y="590" width="230" height="260" as="geometry" />
        </mxCell>
        <mxCell id="p21Or1WGTQ5efiI6KWDO-86" value="&lt;span style=&quot;font-weight: normal;&quot;&gt;&amp;lt;&amp;lt;device&amp;gt;&amp;gt;&lt;/span&gt;&lt;div&gt;digital ocean droplet&amp;nbsp;&lt;/div&gt;" style="text;html=1;align=center;verticalAlign=middle;whiteSpace=wrap;rounded=0;fontStyle=1;fontSize=12;" parent="1" vertex="1">
          <mxGeometry x="1120" y="610" width="170" height="30" as="geometry" />
        </mxCell>
        <mxCell id="p21Or1WGTQ5efiI6KWDO-87" value="" style="verticalAlign=top;align=left;spacingTop=8;spacingLeft=2;spacingRight=12;shape=cube;size=10;direction=south;fontStyle=5;html=1;whiteSpace=wrap;fillColor=#FFCE9F;fontSize=12;" parent="1" vertex="1">
          <mxGeometry x="1110" y="650" width="200" height="190" as="geometry" />
        </mxCell>
        <mxCell id="p21Or1WGTQ5efiI6KWDO-88" value="&lt;span style=&quot;font-weight: normal;&quot;&gt;&amp;lt;&amp;lt;OS&amp;gt;&amp;gt;&lt;/span&gt;&lt;div&gt;Ubuntu 22.04&amp;nbsp;&lt;/div&gt;" style="text;html=1;align=center;verticalAlign=middle;whiteSpace=wrap;rounded=0;fontStyle=1;fontSize=12;" parent="1" vertex="1">
          <mxGeometry x="1120" y="670" width="170" height="30" as="geometry" />
        </mxCell>
        <mxCell id="p21Or1WGTQ5efiI6KWDO-89" value="" style="verticalAlign=top;align=left;spacingTop=8;spacingLeft=2;spacingRight=12;shape=cube;size=10;direction=south;fontStyle=5;html=1;whiteSpace=wrap;fillColor=#66B2FF;fontSize=12;" parent="1" vertex="1">
          <mxGeometry x="1120" y="710" width="170" height="120" as="geometry" />
        </mxCell>
        <mxCell id="p21Or1WGTQ5efiI6KWDO-90" value="&lt;span style=&quot;font-weight: normal;&quot;&gt;&amp;lt;&amp;lt;execution environment&amp;gt;&amp;gt;&lt;/span&gt;&lt;div&gt;:docker swarm worker&lt;/div&gt;" style="text;html=1;align=center;verticalAlign=middle;whiteSpace=wrap;rounded=0;fontStyle=1;fontSize=12;" parent="1" vertex="1">
          <mxGeometry x="1110" y="730" width="170" height="30" as="geometry" />
        </mxCell>
        <mxCell id="p21Or1WGTQ5efiI6KWDO-91" value=":MiniTwit.API" style="html=1;dropTarget=0;whiteSpace=wrap;fillColor=#B3B3B3;fontStyle=1;fontSize=12;" parent="1" vertex="1">
          <mxGeometry x="1140" y="765" width="130" height="60" as="geometry" />
        </mxCell>
        <mxCell id="p21Or1WGTQ5efiI6KWDO-92" value="" style="shape=module;jettyWidth=8;jettyHeight=4;fontStyle=1;fontSize=12;" parent="p21Or1WGTQ5efiI6KWDO-91" vertex="1">
          <mxGeometry x="1" width="20" height="20" relative="1" as="geometry">
            <mxPoint x="-27" y="7" as="offset" />
          </mxGeometry>
        </mxCell>
        <mxCell id="p21Or1WGTQ5efiI6KWDO-113" style="edgeStyle=none;rounded=0;orthogonalLoop=1;jettySize=auto;html=1;exitX=1;exitY=0.5;exitDx=0;exitDy=0;entryX=0;entryY=0.5;entryDx=0;entryDy=0;endArrow=none;startFill=0;strokeWidth=2;fontStyle=1;fontSize=12;" parent="1" source="p21Or1WGTQ5efiI6KWDO-10" target="p21Or1WGTQ5efiI6KWDO-35" edge="1">
          <mxGeometry relative="1" as="geometry" />
        </mxCell>
        <mxCell id="p21Or1WGTQ5efiI6KWDO-121" value="&lt;div&gt;&lt;span style=&quot;font-weight: normal;&quot;&gt;&amp;lt;&amp;lt;protocol&amp;gt;&amp;gt;&lt;/span&gt;&lt;/div&gt;HTTP" style="edgeLabel;html=1;align=center;verticalAlign=middle;resizable=0;points=[];fontFamily=Helvetica;fontSize=12;fontColor=default;labelBackgroundColor=none;fillColor=none;gradientColor=none;fontStyle=1" parent="p21Or1WGTQ5efiI6KWDO-113" connectable="0" vertex="1">
          <mxGeometry x="0.1066" y="2" relative="1" as="geometry">
            <mxPoint x="-12" y="-16" as="offset" />
          </mxGeometry>
        </mxCell>
        <mxCell id="p21Or1WGTQ5efiI6KWDO-141" value="&lt;span&gt;&lt;font&gt;Docker swarm cluster&lt;/font&gt;&lt;/span&gt;" style="text;html=1;align=center;verticalAlign=middle;resizable=0;points=[];autosize=1;strokeColor=none;fillColor=none;fontFamily=Helvetica;fontSize=12;fontColor=default;labelBackgroundColor=none;fontStyle=1" parent="1" vertex="1">
          <mxGeometry x="970" y="540" width="140" height="30" as="geometry" />
        </mxCell>
        <mxCell id="p21Or1WGTQ5efiI6KWDO-147" value="" style="group;fontSize=12;" parent="1" connectable="0" vertex="1">
          <mxGeometry x="1100" y="940" width="232.5" height="240" as="geometry" />
        </mxCell>
        <mxCell id="p21Or1WGTQ5efiI6KWDO-94" value="" style="verticalAlign=top;align=left;spacingTop=8;spacingLeft=2;spacingRight=12;shape=cube;size=10;direction=south;fontStyle=5;html=1;whiteSpace=wrap;fillColor=#CC99FF;fontSize=12;" parent="p21Or1WGTQ5efiI6KWDO-147" vertex="1">
          <mxGeometry width="232.5" height="240" as="geometry" />
        </mxCell>
        <mxCell id="p21Or1WGTQ5efiI6KWDO-95" value="&lt;span style=&quot;font-weight: normal;&quot;&gt;&amp;lt;&amp;lt;device&amp;gt;&amp;gt;&lt;/span&gt;&lt;div&gt;digital ocean droplet&amp;nbsp;&lt;/div&gt;" style="text;html=1;align=center;verticalAlign=middle;whiteSpace=wrap;rounded=0;fontStyle=1;fontSize=12;" parent="p21Or1WGTQ5efiI6KWDO-147" vertex="1">
          <mxGeometry x="22.5" y="20" width="170" height="30" as="geometry" />
        </mxCell>
        <mxCell id="p21Or1WGTQ5efiI6KWDO-96" value="" style="verticalAlign=top;align=left;spacingTop=8;spacingLeft=2;spacingRight=12;shape=cube;size=10;direction=south;fontStyle=5;html=1;whiteSpace=wrap;fillColor=#FFCE9F;fontSize=12;" parent="p21Or1WGTQ5efiI6KWDO-147" vertex="1">
          <mxGeometry x="10" y="60" width="202.5" height="170" as="geometry" />
        </mxCell>
        <mxCell id="p21Or1WGTQ5efiI6KWDO-97" value="&lt;span style=&quot;font-weight: normal;&quot;&gt;&amp;lt;&amp;lt;OS&amp;gt;&amp;gt;&lt;/span&gt;&lt;div&gt;Ubuntu 22.04&amp;nbsp;&lt;/div&gt;" style="text;html=1;align=center;verticalAlign=middle;whiteSpace=wrap;rounded=0;fontStyle=1;fontSize=12;" parent="p21Or1WGTQ5efiI6KWDO-147" vertex="1">
          <mxGeometry x="22.5" y="80" width="170" height="30" as="geometry" />
        </mxCell>
        <mxCell id="p21Or1WGTQ5efiI6KWDO-98" value="" style="verticalAlign=top;align=left;spacingTop=8;spacingLeft=2;spacingRight=12;shape=cube;size=10;direction=south;fontStyle=5;html=1;whiteSpace=wrap;fillColor=#66B2FF;fontSize=12;" parent="p21Or1WGTQ5efiI6KWDO-147" vertex="1">
          <mxGeometry x="20" y="110" width="172.5" height="110" as="geometry" />
        </mxCell>
        <mxCell id="p21Or1WGTQ5efiI6KWDO-99" value="&lt;span style=&quot;font-weight: normal;&quot;&gt;&amp;lt;&amp;lt;execution environment&amp;gt;&amp;gt;&lt;/span&gt;&lt;div&gt;:docker container&lt;/div&gt;" style="text;html=1;align=center;verticalAlign=middle;whiteSpace=wrap;rounded=0;fontStyle=1;fontSize=12;" parent="p21Or1WGTQ5efiI6KWDO-147" vertex="1">
          <mxGeometry x="15" y="120" width="170" height="30" as="geometry" />
        </mxCell>
        <mxCell id="p21Or1WGTQ5efiI6KWDO-100" value=":Datalust/seq" style="html=1;dropTarget=0;whiteSpace=wrap;fillColor=#B3B3B3;fontStyle=1;fontSize=12;" parent="p21Or1WGTQ5efiI6KWDO-147" vertex="1">
          <mxGeometry x="32.5" y="150" width="130" height="60" as="geometry" />
        </mxCell>
        <mxCell id="p21Or1WGTQ5efiI6KWDO-101" value="" style="shape=module;jettyWidth=8;jettyHeight=4;fontStyle=1;fontSize=12;" parent="p21Or1WGTQ5efiI6KWDO-100" vertex="1">
          <mxGeometry x="1" width="20" height="20" relative="1" as="geometry">
            <mxPoint x="-27" y="7" as="offset" />
          </mxGeometry>
        </mxCell>
        <mxCell id="p21Or1WGTQ5efiI6KWDO-148" value="" style="group;fontSize=12;" parent="1" connectable="0" vertex="1">
          <mxGeometry x="760" y="940" width="230" height="240" as="geometry" />
        </mxCell>
        <mxCell id="p21Or1WGTQ5efiI6KWDO-102" value="" style="verticalAlign=top;align=left;spacingTop=8;spacingLeft=2;spacingRight=12;shape=cube;size=10;direction=south;fontStyle=5;html=1;whiteSpace=wrap;fillColor=#CC99FF;fontSize=12;" parent="p21Or1WGTQ5efiI6KWDO-148" vertex="1">
          <mxGeometry width="230" height="240" as="geometry" />
        </mxCell>
        <mxCell id="p21Or1WGTQ5efiI6KWDO-103" value="&lt;span style=&quot;font-weight: normal;&quot;&gt;&amp;lt;&amp;lt;device&amp;gt;&amp;gt;&lt;/span&gt;&lt;div&gt;digital ocean droplet&amp;nbsp;&lt;/div&gt;" style="text;html=1;align=center;verticalAlign=middle;whiteSpace=wrap;rounded=0;fontStyle=1;fontSize=12;" parent="p21Or1WGTQ5efiI6KWDO-148" vertex="1">
          <mxGeometry x="20" y="20" width="170" height="30" as="geometry" />
        </mxCell>
        <mxCell id="p21Or1WGTQ5efiI6KWDO-104" value="" style="verticalAlign=top;align=left;spacingTop=8;spacingLeft=2;spacingRight=12;shape=cube;size=10;direction=south;fontStyle=5;html=1;whiteSpace=wrap;fillColor=#FFCE9F;fontSize=12;" parent="p21Or1WGTQ5efiI6KWDO-148" vertex="1">
          <mxGeometry x="10" y="60" width="200" height="170" as="geometry" />
        </mxCell>
        <mxCell id="p21Or1WGTQ5efiI6KWDO-105" value="&lt;span style=&quot;font-weight: normal;&quot;&gt;&amp;lt;&amp;lt;OS&amp;gt;&amp;gt;&lt;/span&gt;&lt;div&gt;Ubuntu 22.04&amp;nbsp;&lt;/div&gt;" style="text;html=1;align=center;verticalAlign=middle;whiteSpace=wrap;rounded=0;fontStyle=1;fontSize=12;" parent="p21Or1WGTQ5efiI6KWDO-148" vertex="1">
          <mxGeometry x="20" y="80" width="170" height="30" as="geometry" />
        </mxCell>
        <mxCell id="p21Or1WGTQ5efiI6KWDO-106" value="" style="verticalAlign=top;align=left;spacingTop=8;spacingLeft=2;spacingRight=12;shape=cube;size=10;direction=south;fontStyle=5;html=1;whiteSpace=wrap;fillColor=#66B2FF;fontSize=12;" parent="p21Or1WGTQ5efiI6KWDO-148" vertex="1">
          <mxGeometry x="20" y="110" width="170" height="110" as="geometry" />
        </mxCell>
        <mxCell id="p21Or1WGTQ5efiI6KWDO-107" value="&lt;span style=&quot;font-weight: normal;&quot;&gt;&amp;lt;&amp;lt;execution environment&amp;gt;&amp;gt;&lt;/span&gt;&lt;div&gt;:docker container&lt;/div&gt;" style="text;html=1;align=center;verticalAlign=middle;whiteSpace=wrap;rounded=0;fontStyle=1;fontSize=12;" parent="p21Or1WGTQ5efiI6KWDO-148" vertex="1">
          <mxGeometry x="10" y="120" width="170" height="30" as="geometry" />
        </mxCell>
        <mxCell id="p21Or1WGTQ5efiI6KWDO-108" value=":Postgres alpine" style="html=1;dropTarget=0;whiteSpace=wrap;fillColor=#B3B3B3;fontStyle=1;fontSize=12;" parent="p21Or1WGTQ5efiI6KWDO-148" vertex="1">
          <mxGeometry x="30" y="150" width="130" height="60" as="geometry" />
        </mxCell>
        <mxCell id="p21Or1WGTQ5efiI6KWDO-109" value="" style="shape=module;jettyWidth=8;jettyHeight=4;fontStyle=1;fontSize=12;" parent="p21Or1WGTQ5efiI6KWDO-108" vertex="1">
          <mxGeometry x="1" width="20" height="20" relative="1" as="geometry">
            <mxPoint x="-27" y="7" as="offset" />
          </mxGeometry>
        </mxCell>
        <mxCell id="p21Or1WGTQ5efiI6KWDO-149" style="edgeStyle=orthogonalEdgeStyle;shape=connector;rounded=0;orthogonalLoop=1;jettySize=auto;html=1;strokeColor=default;strokeWidth=2;align=center;verticalAlign=middle;fontFamily=Helvetica;fontSize=12;fontColor=default;labelBackgroundColor=none;resizable=0;startFill=0;endArrow=none;" parent="1" source="p21Or1WGTQ5efiI6KWDO-91" target="p21Or1WGTQ5efiI6KWDO-100" edge="1">
          <mxGeometry relative="1" as="geometry">
            <Array as="points">
              <mxPoint x="1220" y="930" />
              <mxPoint x="1370" y="930" />
              <mxPoint x="1370" y="1120" />
            </Array>
          </mxGeometry>
        </mxCell>
        <mxCell id="p21Or1WGTQ5efiI6KWDO-158" value="&amp;lt;&amp;lt;protocol&amp;gt;&amp;gt;&lt;div&gt;HTTP&lt;/div&gt;" style="edgeLabel;html=1;align=center;verticalAlign=middle;resizable=0;points=[];fontFamily=Helvetica;fontSize=12;fontColor=default;labelBackgroundColor=none;fillColor=none;gradientColor=none;" parent="p21Or1WGTQ5efiI6KWDO-149" connectable="0" vertex="1">
          <mxGeometry x="-0.3412" relative="1" as="geometry">
            <mxPoint y="-20" as="offset" />
          </mxGeometry>
        </mxCell>
        <mxCell id="p21Or1WGTQ5efiI6KWDO-150" style="edgeStyle=orthogonalEdgeStyle;shape=connector;rounded=0;orthogonalLoop=1;jettySize=auto;html=1;strokeColor=default;strokeWidth=2;align=center;verticalAlign=middle;fontFamily=Helvetica;fontSize=12;fontColor=default;labelBackgroundColor=none;resizable=0;startFill=0;endArrow=none;" parent="1" source="p21Or1WGTQ5efiI6KWDO-91" target="p21Or1WGTQ5efiI6KWDO-108" edge="1">
          <mxGeometry relative="1" as="geometry">
            <Array as="points">
              <mxPoint x="1180" y="930" />
              <mxPoint x="1020" y="930" />
              <mxPoint x="1020" y="1120" />
            </Array>
          </mxGeometry>
        </mxCell>
        <mxCell id="p21Or1WGTQ5efiI6KWDO-154" value="&amp;lt;&amp;lt;protocol&amp;gt;&amp;gt;&lt;div&gt;SQL&lt;/div&gt;" style="edgeLabel;html=1;align=center;verticalAlign=middle;resizable=0;points=[];fontFamily=Helvetica;fontSize=12;fontColor=default;labelBackgroundColor=none;fillColor=none;gradientColor=none;" parent="p21Or1WGTQ5efiI6KWDO-150" connectable="0" vertex="1">
          <mxGeometry x="-0.2641" y="4" relative="1" as="geometry">
            <mxPoint y="-24" as="offset" />
          </mxGeometry>
        </mxCell>
        <mxCell id="p21Or1WGTQ5efiI6KWDO-152" style="edgeStyle=orthogonalEdgeStyle;shape=connector;rounded=0;orthogonalLoop=1;jettySize=auto;html=1;entryX=0;entryY=0.5;entryDx=0;entryDy=0;strokeColor=default;strokeWidth=2;align=center;verticalAlign=middle;fontFamily=Helvetica;fontSize=12;fontColor=default;labelBackgroundColor=none;resizable=0;startFill=0;endArrow=none;" parent="1" source="p21Or1WGTQ5efiI6KWDO-35" target="p21Or1WGTQ5efiI6KWDO-108" edge="1">
          <mxGeometry relative="1" as="geometry">
            <Array as="points">
              <mxPoint x="860" y="920" />
              <mxPoint x="740" y="920" />
              <mxPoint x="740" y="1120" />
            </Array>
          </mxGeometry>
        </mxCell>
        <mxCell id="p21Or1WGTQ5efiI6KWDO-153" value="&amp;lt;&amp;lt;protocol&amp;gt;&amp;gt;&lt;div&gt;SQL&lt;/div&gt;" style="edgeLabel;html=1;align=center;verticalAlign=middle;resizable=0;points=[];fontFamily=Helvetica;fontSize=12;fontColor=default;labelBackgroundColor=none;fillColor=none;gradientColor=none;" parent="p21Or1WGTQ5efiI6KWDO-152" connectable="0" vertex="1">
          <mxGeometry x="-0.2645" y="2" relative="1" as="geometry">
            <mxPoint x="-84" y="78" as="offset" />
          </mxGeometry>
        </mxCell>
        <mxCell id="p21Or1WGTQ5efiI6KWDO-159" style="edgeStyle=none;shape=connector;rounded=0;orthogonalLoop=1;jettySize=auto;html=1;exitX=1;exitY=0.5;exitDx=0;exitDy=0;entryX=0;entryY=0.5;entryDx=0;entryDy=0;strokeColor=default;strokeWidth=2;align=center;verticalAlign=middle;fontFamily=Helvetica;fontSize=12;fontColor=default;labelBackgroundColor=none;resizable=0;startFill=0;endArrow=none;" parent="1" source="p21Or1WGTQ5efiI6KWDO-35" target="p21Or1WGTQ5efiI6KWDO-91" edge="1">
          <mxGeometry relative="1" as="geometry" />
        </mxCell>
        <mxCell id="p21Or1WGTQ5efiI6KWDO-160" value="&lt;div style=&quot;font-weight: 700;&quot;&gt;&lt;span style=&quot;font-weight: normal;&quot;&gt;&amp;lt;&amp;lt;protocol&amp;gt;&amp;gt;&lt;/span&gt;&lt;/div&gt;&lt;span style=&quot;font-weight: 700;&quot;&gt;TCP&lt;/span&gt;" style="edgeLabel;html=1;align=center;verticalAlign=middle;resizable=0;points=[];fontFamily=Helvetica;fontSize=12;fontColor=default;labelBackgroundColor=none;fillColor=none;gradientColor=none;" parent="p21Or1WGTQ5efiI6KWDO-159" connectable="0" vertex="1">
          <mxGeometry x="-0.0791" relative="1" as="geometry">
            <mxPoint x="10" y="15" as="offset" />
          </mxGeometry>
        </mxCell>
      </root>
    </mxGraphModel>
  </diagram>
  <diagram id="coynyBr1u1SV_5TE6bGh" name="sequence">
    <mxGraphModel dx="1186" dy="916" grid="1" gridSize="10" guides="1" tooltips="1" connect="1" arrows="1" fold="1" page="0" pageScale="1" pageWidth="827" pageHeight="1169" math="0" shadow="0">
      <root>
        <mxCell id="0" />
        <mxCell id="1" parent="0" />
        <mxCell id="KFnyHbSHuBKF7UUEc9uT-7" value="" style="shape=umlLifeline;perimeter=lifelinePerimeter;whiteSpace=wrap;html=1;container=1;dropTarget=0;collapsible=0;recursiveResize=0;outlineConnect=0;portConstraint=eastwest;newEdgeStyle={&quot;curved&quot;:0,&quot;rounded&quot;:0};participant=umlActor;align=center;verticalAlign=middle;fontFamily=Helvetica;fontSize=11;fontColor=default;labelBackgroundColor=none;resizable=1;fillColor=none;gradientColor=none;" parent="1" vertex="1">
          <mxGeometry x="-50" y="-90" width="20" height="250" as="geometry" />
        </mxCell>
        <mxCell id="KFnyHbSHuBKF7UUEc9uT-26" value="" style="html=1;points=[[0,0,0,0,5],[0,1,0,0,-5],[1,0,0,0,5],[1,1,0,0,-5]];perimeter=orthogonalPerimeter;outlineConnect=0;targetShapes=umlLifeline;portConstraint=eastwest;newEdgeStyle={&quot;curved&quot;:0,&quot;rounded&quot;:0};strokeColor=default;align=center;verticalAlign=middle;fontFamily=Helvetica;fontSize=11;fontColor=default;labelBackgroundColor=none;resizable=1;fillColor=#B3B3B3;gradientColor=none;" parent="KFnyHbSHuBKF7UUEc9uT-7" vertex="1">
          <mxGeometry x="5" y="50" width="10" height="190" as="geometry" />
        </mxCell>
        <mxCell id="KFnyHbSHuBKF7UUEc9uT-8" value=":Client" style="shape=umlLifeline;perimeter=lifelinePerimeter;whiteSpace=wrap;html=1;container=1;dropTarget=0;collapsible=0;recursiveResize=0;outlineConnect=0;portConstraint=eastwest;newEdgeStyle={&quot;curved&quot;:0,&quot;rounded&quot;:0};align=center;verticalAlign=middle;fontFamily=Helvetica;fontSize=11;fontColor=default;labelBackgroundColor=none;resizable=1;fillColor=none;gradientColor=none;" parent="1" vertex="1">
          <mxGeometry x="30" y="-90" width="100" height="250" as="geometry" />
        </mxCell>
        <mxCell id="KFnyHbSHuBKF7UUEc9uT-23" value="" style="html=1;points=[[0,0,0,0,5],[0,1,0,0,-5],[1,0,0,0,5],[1,1,0,0,-5]];perimeter=orthogonalPerimeter;outlineConnect=0;targetShapes=umlLifeline;portConstraint=eastwest;newEdgeStyle={&quot;curved&quot;:0,&quot;rounded&quot;:0};strokeColor=default;align=center;verticalAlign=middle;fontFamily=Helvetica;fontSize=11;fontColor=default;labelBackgroundColor=none;resizable=1;fillColor=#B3B3B3;gradientColor=none;" parent="KFnyHbSHuBKF7UUEc9uT-8" vertex="1">
          <mxGeometry x="45" y="60" width="10" height="170" as="geometry" />
        </mxCell>
        <mxCell id="KFnyHbSHuBKF7UUEc9uT-9" value=":API" style="shape=umlLifeline;perimeter=lifelinePerimeter;whiteSpace=wrap;html=1;container=1;dropTarget=0;collapsible=0;recursiveResize=0;outlineConnect=0;portConstraint=eastwest;newEdgeStyle={&quot;curved&quot;:0,&quot;rounded&quot;:0};align=center;verticalAlign=middle;fontFamily=Helvetica;fontSize=11;fontColor=default;labelBackgroundColor=none;resizable=1;fillColor=none;gradientColor=none;" parent="1" vertex="1">
          <mxGeometry x="160" y="-90" width="100" height="250" as="geometry" />
        </mxCell>
        <mxCell id="KFnyHbSHuBKF7UUEc9uT-28" value="" style="html=1;points=[[0,0,0,0,5],[0,1,0,0,-5],[1,0,0,0,5],[1,1,0,0,-5]];perimeter=orthogonalPerimeter;outlineConnect=0;targetShapes=umlLifeline;portConstraint=eastwest;newEdgeStyle={&quot;curved&quot;:0,&quot;rounded&quot;:0};strokeColor=default;align=center;verticalAlign=middle;fontFamily=Helvetica;fontSize=11;fontColor=default;labelBackgroundColor=none;resizable=1;fillColor=#B3B3B3;gradientColor=none;" parent="KFnyHbSHuBKF7UUEc9uT-9" vertex="1">
          <mxGeometry x="45" y="80" width="10" height="130" as="geometry" />
        </mxCell>
        <mxCell id="KFnyHbSHuBKF7UUEc9uT-10" value=":DB" style="shape=umlLifeline;perimeter=lifelinePerimeter;whiteSpace=wrap;html=1;container=1;dropTarget=0;collapsible=0;recursiveResize=0;outlineConnect=0;portConstraint=eastwest;newEdgeStyle={&quot;curved&quot;:0,&quot;rounded&quot;:0};align=center;verticalAlign=middle;fontFamily=Helvetica;fontSize=11;fontColor=default;labelBackgroundColor=none;resizable=1;fillColor=none;gradientColor=none;" parent="1" vertex="1">
          <mxGeometry x="280" y="-90" width="100" height="250" as="geometry" />
        </mxCell>
        <mxCell id="KFnyHbSHuBKF7UUEc9uT-33" value="" style="html=1;points=[[0,0,0,0,5],[0,1,0,0,-5],[1,0,0,0,5],[1,1,0,0,-5]];perimeter=orthogonalPerimeter;outlineConnect=0;targetShapes=umlLifeline;portConstraint=eastwest;newEdgeStyle={&quot;curved&quot;:0,&quot;rounded&quot;:0};strokeColor=default;align=center;verticalAlign=middle;fontFamily=Helvetica;fontSize=11;fontColor=default;labelBackgroundColor=none;resizable=1;fillColor=#B3B3B3;gradientColor=none;" parent="KFnyHbSHuBKF7UUEc9uT-10" vertex="1">
          <mxGeometry x="45" y="120" width="10" height="40" as="geometry" />
        </mxCell>
        <mxCell id="KFnyHbSHuBKF7UUEc9uT-13" value=":Seq" style="shape=umlLifeline;perimeter=lifelinePerimeter;whiteSpace=wrap;html=1;container=0;dropTarget=0;collapsible=0;recursiveResize=0;outlineConnect=0;portConstraint=eastwest;newEdgeStyle={&quot;curved&quot;:0,&quot;rounded&quot;:0};align=center;verticalAlign=middle;fontFamily=Helvetica;fontSize=11;fontColor=default;labelBackgroundColor=none;resizable=1;fillColor=none;gradientColor=none;" parent="1" vertex="1">
          <mxGeometry x="400" y="-90" width="100" height="250" as="geometry" />
        </mxCell>
        <mxCell id="KFnyHbSHuBKF7UUEc9uT-24" value="Post message" style="html=1;verticalAlign=bottom;endArrow=block;curved=0;rounded=0;entryX=0;entryY=0;entryDx=0;entryDy=5;strokeColor=default;strokeWidth=2;align=center;fontFamily=Helvetica;fontSize=11;fontColor=default;labelBackgroundColor=none;resizable=1;edgeStyle=none;" parent="1" source="KFnyHbSHuBKF7UUEc9uT-26" target="KFnyHbSHuBKF7UUEc9uT-23" edge="1">
          <mxGeometry relative="1" as="geometry">
            <mxPoint x="10" y="-25" as="sourcePoint" />
          </mxGeometry>
        </mxCell>
        <mxCell id="KFnyHbSHuBKF7UUEc9uT-25" value="update page" style="html=1;verticalAlign=bottom;endArrow=open;dashed=1;endSize=8;curved=0;rounded=0;exitX=0;exitY=1;exitDx=0;exitDy=-5;strokeColor=default;strokeWidth=2;align=center;fontFamily=Helvetica;fontSize=11;fontColor=default;labelBackgroundColor=none;resizable=1;edgeStyle=none;" parent="1" source="KFnyHbSHuBKF7UUEc9uT-23" target="KFnyHbSHuBKF7UUEc9uT-26" edge="1">
          <mxGeometry relative="1" as="geometry">
            <mxPoint x="-30" y="135" as="targetPoint" />
          </mxGeometry>
        </mxCell>
        <mxCell id="KFnyHbSHuBKF7UUEc9uT-30" value="200 OK" style="html=1;verticalAlign=bottom;endArrow=open;dashed=1;endSize=8;curved=0;rounded=0;exitX=0;exitY=1;exitDx=0;exitDy=-5;strokeColor=default;strokeWidth=2;align=center;fontFamily=Helvetica;fontSize=11;fontColor=default;labelBackgroundColor=none;resizable=1;edgeStyle=none;" parent="1" source="KFnyHbSHuBKF7UUEc9uT-28" target="KFnyHbSHuBKF7UUEc9uT-23" edge="1">
          <mxGeometry x="0.0026" relative="1" as="geometry">
            <mxPoint x="135" y="65" as="targetPoint" />
            <mxPoint as="offset" />
          </mxGeometry>
        </mxCell>
        <mxCell id="KFnyHbSHuBKF7UUEc9uT-29" value="PostMessage()" style="html=1;verticalAlign=bottom;endArrow=block;curved=0;rounded=0;entryX=0;entryY=0;entryDx=0;entryDy=5;strokeColor=default;strokeWidth=2;align=center;fontFamily=Helvetica;fontSize=11;fontColor=default;labelBackgroundColor=none;resizable=1;edgeStyle=none;" parent="1" source="KFnyHbSHuBKF7UUEc9uT-23" target="KFnyHbSHuBKF7UUEc9uT-28" edge="1">
          <mxGeometry relative="1" as="geometry">
            <mxPoint x="135" y="-5" as="sourcePoint" />
          </mxGeometry>
        </mxCell>
        <mxCell id="KFnyHbSHuBKF7UUEc9uT-34" value="&amp;lt;&amp;lt;sql&amp;gt;&amp;gt;" style="html=1;verticalAlign=bottom;endArrow=open;curved=0;rounded=0;entryX=0;entryY=0;entryDx=0;entryDy=5;strokeColor=default;strokeWidth=2;align=center;fontFamily=Helvetica;fontSize=11;fontColor=default;labelBackgroundColor=none;resizable=1;edgeStyle=none;endFill=0;" parent="1" source="KFnyHbSHuBKF7UUEc9uT-28" target="KFnyHbSHuBKF7UUEc9uT-33" edge="1">
          <mxGeometry relative="1" as="geometry">
            <mxPoint x="255" y="5" as="sourcePoint" />
          </mxGeometry>
        </mxCell>
        <mxCell id="KFnyHbSHuBKF7UUEc9uT-35" value="Succes" style="html=1;verticalAlign=bottom;endArrow=open;dashed=1;endSize=8;curved=0;rounded=0;exitX=0;exitY=1;exitDx=0;exitDy=-5;strokeColor=default;strokeWidth=2;align=center;fontFamily=Helvetica;fontSize=11;fontColor=default;labelBackgroundColor=none;resizable=1;edgeStyle=none;" parent="1" source="KFnyHbSHuBKF7UUEc9uT-33" target="KFnyHbSHuBKF7UUEc9uT-28" edge="1">
          <mxGeometry x="0.0031" relative="1" as="geometry">
            <mxPoint x="255" y="75" as="targetPoint" />
            <mxPoint as="offset" />
          </mxGeometry>
        </mxCell>
        <mxCell id="KFnyHbSHuBKF7UUEc9uT-37" value="log request" style="html=1;verticalAlign=bottom;endArrow=open;curved=0;rounded=0;entryX=0;entryY=0;entryDx=0;entryDy=5;strokeColor=default;strokeWidth=2;align=center;fontFamily=Helvetica;fontSize=11;fontColor=default;labelBackgroundColor=none;resizable=1;edgeStyle=none;endFill=0;" parent="1" source="KFnyHbSHuBKF7UUEc9uT-28" target="KFnyHbSHuBKF7UUEc9uT-36" edge="1">
          <mxGeometry x="-0.4882" y="5" relative="1" as="geometry">
            <mxPoint x="220" y="15" as="sourcePoint" />
            <mxPoint as="offset" />
          </mxGeometry>
        </mxCell>
        <mxCell id="KFnyHbSHuBKF7UUEc9uT-40" value="log response" style="html=1;verticalAlign=bottom;endArrow=open;curved=0;rounded=0;entryX=0;entryY=0;entryDx=0;entryDy=5;strokeColor=default;strokeWidth=2;align=center;fontFamily=Helvetica;fontSize=11;fontColor=default;labelBackgroundColor=none;resizable=1;edgeStyle=none;endFill=0;" parent="1" source="KFnyHbSHuBKF7UUEc9uT-28" target="KFnyHbSHuBKF7UUEc9uT-39" edge="1">
          <mxGeometry x="-0.4882" y="5" relative="1" as="geometry">
            <mxPoint x="220" y="145" as="sourcePoint" />
            <mxPoint as="offset" />
          </mxGeometry>
        </mxCell>
        <mxCell id="KFnyHbSHuBKF7UUEc9uT-36" value="" style="html=1;points=[[0,0,0,0,5],[0,1,0,0,-5],[1,0,0,0,5],[1,1,0,0,-5]];perimeter=orthogonalPerimeter;outlineConnect=0;targetShapes=umlLifeline;portConstraint=eastwest;newEdgeStyle={&quot;curved&quot;:0,&quot;rounded&quot;:0};strokeColor=default;align=center;verticalAlign=middle;fontFamily=Helvetica;fontSize=11;fontColor=default;labelBackgroundColor=none;resizable=1;fillColor=#B3B3B3;gradientColor=none;" parent="1" vertex="1">
          <mxGeometry x="445" y="10" width="10" height="20" as="geometry" />
        </mxCell>
        <mxCell id="KFnyHbSHuBKF7UUEc9uT-39" value="" style="html=1;points=[[0,0,0,0,5],[0,1,0,0,-5],[1,0,0,0,5],[1,1,0,0,-5]];perimeter=orthogonalPerimeter;outlineConnect=0;targetShapes=umlLifeline;portConstraint=eastwest;newEdgeStyle={&quot;curved&quot;:0,&quot;rounded&quot;:0};strokeColor=default;align=center;verticalAlign=middle;fontFamily=Helvetica;fontSize=11;fontColor=default;labelBackgroundColor=none;resizable=1;fillColor=#B3B3B3;gradientColor=none;" parent="1" vertex="1">
          <mxGeometry x="445" y="90" width="10" height="20" as="geometry" />
        </mxCell>
        <mxCell id="KFnyHbSHuBKF7UUEc9uT-45" value="User posting a message" style="shape=umlFrame;whiteSpace=wrap;html=1;pointerEvents=0;strokeColor=default;align=center;verticalAlign=middle;fontFamily=Helvetica;fontSize=11;fontColor=default;labelBackgroundColor=none;resizable=1;fillColor=none;gradientColor=none;width=155;height=30;" parent="1" vertex="1">
          <mxGeometry x="-95" y="-130" width="635" height="310" as="geometry" />
        </mxCell>
      </root>
    </mxGraphModel>
  </diagram>
  <diagram id="FilRNbf_cIEJyOKpu6AX" name="activity">
    <mxGraphModel dx="1186" dy="516" grid="1" gridSize="10" guides="1" tooltips="1" connect="1" arrows="1" fold="1" page="0" pageScale="1" pageWidth="827" pageHeight="1169" math="0" shadow="0">
      <root>
        <mxCell id="0" />
        <mxCell id="1" parent="0" />
        <mxCell id="nrOoguIhXEerUuoo3uGu-13" value="" style="edgeStyle=none;shape=connector;rounded=0;orthogonalLoop=1;jettySize=auto;html=1;strokeColor=default;strokeWidth=2;align=center;verticalAlign=middle;fontFamily=Helvetica;fontSize=11;fontColor=default;labelBackgroundColor=none;resizable=1;startFill=0;endArrow=open;endFill=0;fontStyle=1" parent="1" source="nrOoguIhXEerUuoo3uGu-5" target="nrOoguIhXEerUuoo3uGu-12" edge="1">
          <mxGeometry relative="1" as="geometry" />
        </mxCell>
        <mxCell id="nrOoguIhXEerUuoo3uGu-5" value="Create ticket" style="rounded=1;whiteSpace=wrap;html=1;strokeColor=default;align=center;verticalAlign=middle;fontFamily=Helvetica;fontSize=11;fontColor=default;labelBackgroundColor=none;resizable=1;fillColor=none;gradientColor=none;strokeWidth=2;fontStyle=1" parent="1" vertex="1">
          <mxGeometry x="-30" y="175.74" width="120" height="60" as="geometry" />
        </mxCell>
        <mxCell id="nrOoguIhXEerUuoo3uGu-6" value="" style="ellipse;html=1;shape=startState;fillColor=#000000;strokeColor=#000000;align=center;verticalAlign=middle;fontFamily=Helvetica;fontSize=11;fontColor=default;labelBackgroundColor=none;resizable=1;fontStyle=1" parent="1" vertex="1">
          <mxGeometry x="-110" y="190.74" width="30" height="30" as="geometry" />
        </mxCell>
        <mxCell id="nrOoguIhXEerUuoo3uGu-7" value="" style="edgeStyle=orthogonalEdgeStyle;html=1;verticalAlign=bottom;endArrow=open;endSize=8;strokeColor=#000000;rounded=0;strokeWidth=2;align=center;fontFamily=Helvetica;fontSize=11;fontColor=default;labelBackgroundColor=none;resizable=1;entryX=0;entryY=0.5;entryDx=0;entryDy=0;exitX=0.777;exitY=0.513;exitDx=0;exitDy=0;exitPerimeter=0;fontStyle=1" parent="1" source="nrOoguIhXEerUuoo3uGu-6" target="nrOoguIhXEerUuoo3uGu-5" edge="1">
          <mxGeometry relative="1" as="geometry">
            <mxPoint x="-40" y="205.74" as="targetPoint" />
          </mxGeometry>
        </mxCell>
        <mxCell id="nrOoguIhXEerUuoo3uGu-47" style="shape=connector;rounded=0;orthogonalLoop=1;jettySize=auto;html=1;entryX=0.5;entryY=0;entryDx=0;entryDy=0;strokeColor=default;strokeWidth=2;align=center;verticalAlign=middle;fontFamily=Helvetica;fontSize=11;fontColor=default;labelBackgroundColor=none;resizable=1;startFill=0;endArrow=open;endFill=0;edgeStyle=orthogonalEdgeStyle;exitX=0;exitY=0.5;exitDx=0;exitDy=0;fontStyle=1" parent="1" source="nrOoguIhXEerUuoo3uGu-10" target="nrOoguIhXEerUuoo3uGu-45" edge="1">
          <mxGeometry relative="1" as="geometry" />
        </mxCell>
        <mxCell id="nrOoguIhXEerUuoo3uGu-51" value="&lt;span style=&quot;font-weight: normal;&quot;&gt;[no release]&lt;/span&gt;" style="edgeLabel;html=1;align=center;verticalAlign=middle;resizable=0;points=[];strokeColor=default;fontFamily=Helvetica;fontSize=11;fontColor=default;labelBackgroundColor=none;fillColor=none;gradientColor=none;fontStyle=1" parent="nrOoguIhXEerUuoo3uGu-47" connectable="0" vertex="1">
          <mxGeometry x="-0.33" y="-2" relative="1" as="geometry">
            <mxPoint x="110" y="-8" as="offset" />
          </mxGeometry>
        </mxCell>
        <mxCell id="nrOoguIhXEerUuoo3uGu-53" value="&lt;span style=&quot;font-weight: normal;&quot;&gt;[release]&lt;/span&gt;" style="edgeLabel;html=1;align=center;verticalAlign=middle;resizable=0;points=[];strokeColor=default;fontFamily=Helvetica;fontSize=11;fontColor=default;labelBackgroundColor=none;fillColor=none;gradientColor=none;fontStyle=1" parent="nrOoguIhXEerUuoo3uGu-47" connectable="0" vertex="1">
          <mxGeometry x="-0.2495" y="-1" relative="1" as="geometry">
            <mxPoint x="5" y="-9" as="offset" />
          </mxGeometry>
        </mxCell>
        <mxCell id="nrOoguIhXEerUuoo3uGu-10" value="" style="rhombus;whiteSpace=wrap;html=1;strokeColor=default;align=center;verticalAlign=middle;fontFamily=Helvetica;fontSize=11;fontColor=default;labelBackgroundColor=none;resizable=1;fillColor=none;gradientColor=none;fontStyle=1" parent="1" vertex="1">
          <mxGeometry x="20" y="550" width="30" height="40" as="geometry" />
        </mxCell>
        <mxCell id="nrOoguIhXEerUuoo3uGu-15" value="" style="edgeStyle=none;shape=connector;rounded=0;orthogonalLoop=1;jettySize=auto;html=1;strokeColor=default;strokeWidth=2;align=center;verticalAlign=middle;fontFamily=Helvetica;fontSize=11;fontColor=default;labelBackgroundColor=none;resizable=1;startFill=0;endArrow=open;endFill=0;fontStyle=1" parent="1" source="nrOoguIhXEerUuoo3uGu-12" target="nrOoguIhXEerUuoo3uGu-14" edge="1">
          <mxGeometry relative="1" as="geometry" />
        </mxCell>
        <mxCell id="nrOoguIhXEerUuoo3uGu-12" value="Implement feature" style="whiteSpace=wrap;html=1;fontSize=11;fillColor=none;rounded=1;labelBackgroundColor=none;resizable=1;gradientColor=none;strokeWidth=2;fontStyle=1" parent="1" vertex="1">
          <mxGeometry x="170" y="175.74" width="120" height="60" as="geometry" />
        </mxCell>
        <mxCell id="nrOoguIhXEerUuoo3uGu-14" value="Create pull request" style="whiteSpace=wrap;html=1;fontSize=11;fillColor=none;rounded=1;labelBackgroundColor=none;resizable=1;gradientColor=none;strokeWidth=2;fontStyle=1" parent="1" vertex="1">
          <mxGeometry x="370" y="175.74" width="120" height="60" as="geometry" />
        </mxCell>
        <mxCell id="nrOoguIhXEerUuoo3uGu-29" style="edgeStyle=none;shape=connector;rounded=0;orthogonalLoop=1;jettySize=auto;html=1;strokeColor=default;strokeWidth=2;align=center;verticalAlign=middle;fontFamily=Helvetica;fontSize=11;fontColor=default;labelBackgroundColor=none;resizable=1;startFill=0;endArrow=open;endFill=0;exitX=0.627;exitY=0.714;exitDx=0;exitDy=0;exitPerimeter=0;entryX=0.5;entryY=0;entryDx=0;entryDy=0;fontStyle=1" parent="1" source="nrOoguIhXEerUuoo3uGu-18" target="nrOoguIhXEerUuoo3uGu-27" edge="1">
          <mxGeometry relative="1" as="geometry" />
        </mxCell>
        <mxCell id="nrOoguIhXEerUuoo3uGu-30" style="edgeStyle=none;shape=connector;rounded=0;orthogonalLoop=1;jettySize=auto;html=1;exitX=0.884;exitY=0.714;exitDx=0;exitDy=0;exitPerimeter=0;entryX=0.5;entryY=0;entryDx=0;entryDy=0;strokeColor=default;strokeWidth=2;align=center;verticalAlign=middle;fontFamily=Helvetica;fontSize=11;fontColor=default;labelBackgroundColor=none;resizable=1;startFill=0;endArrow=open;endFill=0;fontStyle=1" parent="1" source="nrOoguIhXEerUuoo3uGu-18" target="nrOoguIhXEerUuoo3uGu-62" edge="1">
          <mxGeometry relative="1" as="geometry" />
        </mxCell>
        <mxCell id="nrOoguIhXEerUuoo3uGu-64" style="edgeStyle=none;shape=connector;rounded=0;orthogonalLoop=1;jettySize=auto;html=1;entryX=0.5;entryY=0;entryDx=0;entryDy=0;strokeColor=default;strokeWidth=2;align=center;verticalAlign=middle;fontFamily=Helvetica;fontSize=11;fontColor=default;labelBackgroundColor=none;resizable=1;startFill=0;endArrow=open;endFill=0;exitX=0.116;exitY=0.257;exitDx=0;exitDy=0;exitPerimeter=0;fontStyle=1" parent="1" source="nrOoguIhXEerUuoo3uGu-18" target="nrOoguIhXEerUuoo3uGu-35" edge="1">
          <mxGeometry relative="1" as="geometry" />
        </mxCell>
        <mxCell id="nrOoguIhXEerUuoo3uGu-18" value="" style="shape=line;html=1;strokeWidth=6;strokeColor=#000000;align=center;verticalAlign=middle;fontFamily=Helvetica;fontSize=11;fontColor=default;labelBackgroundColor=none;resizable=1;fillColor=none;gradientColor=none;fontStyle=1" parent="1" vertex="1">
          <mxGeometry x="110" y="300" width="510" height="10" as="geometry" />
        </mxCell>
        <mxCell id="nrOoguIhXEerUuoo3uGu-25" value="Build &amp;amp; Test" style="whiteSpace=wrap;html=1;fontSize=11;fillColor=none;rounded=1;labelBackgroundColor=none;resizable=1;gradientColor=none;strokeWidth=2;fontStyle=1" parent="1" vertex="1">
          <mxGeometry x="240" y="350" width="120" height="60" as="geometry" />
        </mxCell>
        <mxCell id="nrOoguIhXEerUuoo3uGu-27" value="Code quality&lt;div&gt;(Csharpier, CodeQL)&lt;/div&gt;" style="whiteSpace=wrap;html=1;fontSize=11;fillColor=none;rounded=1;labelBackgroundColor=none;resizable=1;gradientColor=none;strokeWidth=2;fontStyle=1" parent="1" vertex="1">
          <mxGeometry x="370" y="350" width="120" height="60" as="geometry" />
        </mxCell>
        <mxCell id="nrOoguIhXEerUuoo3uGu-40" style="edgeStyle=orthogonalEdgeStyle;shape=connector;rounded=0;orthogonalLoop=1;jettySize=auto;html=1;strokeColor=default;strokeWidth=2;align=center;verticalAlign=middle;fontFamily=Helvetica;fontSize=11;fontColor=default;labelBackgroundColor=none;resizable=1;startFill=0;endArrow=open;endFill=0;exitX=0.5;exitY=1;exitDx=0;exitDy=0;exitPerimeter=0;entryX=1;entryY=0.5;entryDx=0;entryDy=0;fontStyle=1" parent="1" source="nrOoguIhXEerUuoo3uGu-31" target="nrOoguIhXEerUuoo3uGu-39" edge="1">
          <mxGeometry relative="1" as="geometry" />
        </mxCell>
        <mxCell id="nrOoguIhXEerUuoo3uGu-31" value="" style="shape=line;html=1;strokeWidth=6;strokeColor=#000000;align=center;verticalAlign=middle;fontFamily=Helvetica;fontSize=11;fontColor=default;labelBackgroundColor=none;resizable=1;fillColor=none;gradientColor=none;fontStyle=1" parent="1" vertex="1">
          <mxGeometry x="110" y="440" width="510" height="10" as="geometry" />
        </mxCell>
        <mxCell id="nrOoguIhXEerUuoo3uGu-33" style="edgeStyle=none;shape=connector;rounded=0;orthogonalLoop=1;jettySize=auto;html=1;strokeColor=default;strokeWidth=2;align=center;verticalAlign=middle;fontFamily=Helvetica;fontSize=11;fontColor=default;labelBackgroundColor=none;resizable=1;startFill=0;endArrow=open;endFill=0;exitX=0.5;exitY=1;exitDx=0;exitDy=0;entryX=0.373;entryY=0;entryDx=0;entryDy=0;entryPerimeter=0;fontStyle=1" parent="1" source="nrOoguIhXEerUuoo3uGu-25" target="nrOoguIhXEerUuoo3uGu-31" edge="1">
          <mxGeometry relative="1" as="geometry">
            <mxPoint x="120" y="550" as="targetPoint" />
          </mxGeometry>
        </mxCell>
        <mxCell id="nrOoguIhXEerUuoo3uGu-34" style="edgeStyle=none;shape=connector;rounded=0;orthogonalLoop=1;jettySize=auto;html=1;strokeColor=default;strokeWidth=2;align=center;verticalAlign=middle;fontFamily=Helvetica;fontSize=11;fontColor=default;labelBackgroundColor=none;resizable=1;startFill=0;endArrow=open;endFill=0;entryX=0.629;entryY=0.314;entryDx=0;entryDy=0;entryPerimeter=0;fontStyle=1" parent="1" source="nrOoguIhXEerUuoo3uGu-27" target="nrOoguIhXEerUuoo3uGu-31" edge="1">
          <mxGeometry relative="1" as="geometry" />
        </mxCell>
        <mxCell id="nrOoguIhXEerUuoo3uGu-35" value="Peer review&amp;nbsp; approval&amp;nbsp;" style="whiteSpace=wrap;html=1;fontSize=11;fillColor=none;rounded=1;labelBackgroundColor=none;resizable=1;gradientColor=none;strokeWidth=2;fontStyle=1" parent="1" vertex="1">
          <mxGeometry x="110" y="350" width="120" height="60" as="geometry" />
        </mxCell>
        <mxCell id="nrOoguIhXEerUuoo3uGu-37" style="edgeStyle=none;shape=connector;rounded=0;orthogonalLoop=1;jettySize=auto;html=1;strokeColor=default;strokeWidth=2;align=center;verticalAlign=middle;fontFamily=Helvetica;fontSize=11;fontColor=default;labelBackgroundColor=none;resizable=1;startFill=0;endArrow=open;endFill=0;fontStyle=1" parent="1" source="nrOoguIhXEerUuoo3uGu-14" edge="1">
          <mxGeometry relative="1" as="geometry">
            <mxPoint x="430" y="300" as="targetPoint" />
          </mxGeometry>
        </mxCell>
        <mxCell id="nrOoguIhXEerUuoo3uGu-38" style="edgeStyle=none;shape=connector;rounded=0;orthogonalLoop=1;jettySize=auto;html=1;entryX=0.5;entryY=0;entryDx=0;entryDy=0;strokeColor=default;strokeWidth=2;align=center;verticalAlign=middle;fontFamily=Helvetica;fontSize=11;fontColor=default;labelBackgroundColor=none;resizable=1;startFill=0;endArrow=open;endFill=0;exitX=0.372;exitY=0.543;exitDx=0;exitDy=0;exitPerimeter=0;fontStyle=1" parent="1" source="nrOoguIhXEerUuoo3uGu-18" target="nrOoguIhXEerUuoo3uGu-25" edge="1">
          <mxGeometry relative="1" as="geometry" />
        </mxCell>
        <mxCell id="nrOoguIhXEerUuoo3uGu-63" value="" style="edgeLabel;html=1;align=center;verticalAlign=middle;resizable=0;points=[];strokeColor=default;fontFamily=Helvetica;fontSize=11;fontColor=default;labelBackgroundColor=none;fillColor=none;gradientColor=none;fontStyle=1" parent="nrOoguIhXEerUuoo3uGu-38" connectable="0" vertex="1">
          <mxGeometry x="0.0604" y="1" relative="1" as="geometry">
            <mxPoint as="offset" />
          </mxGeometry>
        </mxCell>
        <mxCell id="nrOoguIhXEerUuoo3uGu-43" style="edgeStyle=none;shape=connector;rounded=0;orthogonalLoop=1;jettySize=auto;html=1;strokeColor=default;strokeWidth=2;align=center;verticalAlign=middle;fontFamily=Helvetica;fontSize=11;fontColor=default;labelBackgroundColor=none;resizable=1;startFill=0;endArrow=open;endFill=0;exitX=0.5;exitY=1;exitDx=0;exitDy=0;entryX=0.119;entryY=0.339;entryDx=0;entryDy=0;entryPerimeter=0;fontStyle=1" parent="1" source="nrOoguIhXEerUuoo3uGu-39" target="nrOoguIhXEerUuoo3uGu-42" edge="1">
          <mxGeometry relative="1" as="geometry">
            <mxPoint x="-50" y="490" as="targetPoint" />
          </mxGeometry>
        </mxCell>
        <mxCell id="nrOoguIhXEerUuoo3uGu-39" value="Merge" style="whiteSpace=wrap;html=1;fontSize=11;fillColor=none;rounded=1;labelBackgroundColor=none;resizable=1;gradientColor=none;strokeWidth=2;fontStyle=1" parent="1" vertex="1">
          <mxGeometry x="-110" y="350" width="120" height="60" as="geometry" />
        </mxCell>
        <mxCell id="nrOoguIhXEerUuoo3uGu-44" style="edgeStyle=none;shape=connector;rounded=0;orthogonalLoop=1;jettySize=auto;html=1;entryX=0.5;entryY=0;entryDx=0;entryDy=0;strokeColor=default;strokeWidth=2;align=center;verticalAlign=middle;fontFamily=Helvetica;fontSize=11;fontColor=default;labelBackgroundColor=none;resizable=1;startFill=0;endArrow=open;endFill=0;exitX=0.282;exitY=0.532;exitDx=0;exitDy=0;exitPerimeter=0;fontStyle=1" parent="1" source="nrOoguIhXEerUuoo3uGu-42" target="nrOoguIhXEerUuoo3uGu-10" edge="1">
          <mxGeometry relative="1" as="geometry" />
        </mxCell>
        <mxCell id="nrOoguIhXEerUuoo3uGu-57" style="edgeStyle=none;shape=connector;rounded=0;orthogonalLoop=1;jettySize=auto;html=1;entryX=0.5;entryY=0;entryDx=0;entryDy=0;strokeColor=default;strokeWidth=2;align=center;verticalAlign=middle;fontFamily=Helvetica;fontSize=11;fontColor=default;labelBackgroundColor=none;resizable=1;startFill=0;endArrow=open;endFill=0;exitX=0.61;exitY=0.661;exitDx=0;exitDy=0;exitPerimeter=0;fontStyle=1" parent="1" source="nrOoguIhXEerUuoo3uGu-42" target="nrOoguIhXEerUuoo3uGu-55" edge="1">
          <mxGeometry relative="1" as="geometry" />
        </mxCell>
        <mxCell id="nrOoguIhXEerUuoo3uGu-58" style="edgeStyle=none;shape=connector;rounded=0;orthogonalLoop=1;jettySize=auto;html=1;entryX=0.5;entryY=0;entryDx=0;entryDy=0;strokeColor=default;strokeWidth=2;align=center;verticalAlign=middle;fontFamily=Helvetica;fontSize=11;fontColor=default;labelBackgroundColor=none;resizable=1;startFill=0;endArrow=open;endFill=0;exitX=0.872;exitY=0.726;exitDx=0;exitDy=0;exitPerimeter=0;fontStyle=1" parent="1" source="nrOoguIhXEerUuoo3uGu-42" target="nrOoguIhXEerUuoo3uGu-56" edge="1">
          <mxGeometry relative="1" as="geometry" />
        </mxCell>
        <mxCell id="nrOoguIhXEerUuoo3uGu-42" value="" style="shape=line;html=1;strokeWidth=6;strokeColor=#000000;align=center;verticalAlign=middle;fontFamily=Helvetica;fontSize=11;fontColor=default;labelBackgroundColor=none;resizable=1;fillColor=none;gradientColor=none;fontStyle=1" parent="1" vertex="1">
          <mxGeometry x="-110" y="500" width="510" height="10" as="geometry" />
        </mxCell>
        <mxCell id="nrOoguIhXEerUuoo3uGu-45" value="Auto Release" style="rounded=1;whiteSpace=wrap;html=1;strokeColor=default;align=center;verticalAlign=middle;fontFamily=Helvetica;fontSize=11;fontColor=default;labelBackgroundColor=none;resizable=1;fillColor=none;gradientColor=none;strokeWidth=2;fontStyle=1" parent="1" vertex="1">
          <mxGeometry x="-100" y="630" width="120" height="60" as="geometry" />
        </mxCell>
        <mxCell id="nrOoguIhXEerUuoo3uGu-69" value="" style="edgeStyle=none;shape=connector;rounded=0;orthogonalLoop=1;jettySize=auto;html=1;strokeColor=default;strokeWidth=2;align=center;verticalAlign=middle;fontFamily=Helvetica;fontSize=11;fontColor=default;labelBackgroundColor=none;resizable=1;startFill=0;endArrow=open;endFill=0;fontStyle=1" parent="1" source="nrOoguIhXEerUuoo3uGu-49" edge="1">
          <mxGeometry relative="1" as="geometry">
            <mxPoint x="145" y="770" as="targetPoint" />
          </mxGeometry>
        </mxCell>
        <mxCell id="nrOoguIhXEerUuoo3uGu-49" value="" style="shape=line;html=1;strokeWidth=6;strokeColor=#000000;align=center;verticalAlign=middle;fontFamily=Helvetica;fontSize=11;fontColor=default;labelBackgroundColor=none;resizable=1;fillColor=none;gradientColor=none;fontStyle=1" parent="1" vertex="1">
          <mxGeometry x="-110" y="730" width="510" height="10" as="geometry" />
        </mxCell>
        <mxCell id="nrOoguIhXEerUuoo3uGu-50" style="edgeStyle=orthogonalEdgeStyle;shape=connector;rounded=0;orthogonalLoop=1;jettySize=auto;html=1;exitX=1;exitY=0.5;exitDx=0;exitDy=0;strokeColor=default;strokeWidth=2;align=center;verticalAlign=middle;fontFamily=Helvetica;fontSize=11;fontColor=default;labelBackgroundColor=none;resizable=1;startFill=0;endArrow=open;endFill=0;entryX=0.45;entryY=0.2;entryDx=0;entryDy=0;entryPerimeter=0;fontStyle=1" parent="1" source="nrOoguIhXEerUuoo3uGu-10" target="nrOoguIhXEerUuoo3uGu-49" edge="1">
          <mxGeometry relative="1" as="geometry">
            <mxPoint x="100" y="720" as="targetPoint" />
            <Array as="points">
              <mxPoint x="119" y="570" />
            </Array>
          </mxGeometry>
        </mxCell>
        <mxCell id="nrOoguIhXEerUuoo3uGu-54" style="edgeStyle=none;shape=connector;rounded=0;orthogonalLoop=1;jettySize=auto;html=1;strokeColor=default;strokeWidth=2;align=center;verticalAlign=middle;fontFamily=Helvetica;fontSize=11;fontColor=default;labelBackgroundColor=none;resizable=1;startFill=0;endArrow=open;endFill=0;exitX=0.5;exitY=1;exitDx=0;exitDy=0;entryX=0.137;entryY=0;entryDx=0;entryDy=0;entryPerimeter=0;fontStyle=1" parent="1" source="nrOoguIhXEerUuoo3uGu-45" target="nrOoguIhXEerUuoo3uGu-49" edge="1">
          <mxGeometry relative="1" as="geometry" />
        </mxCell>
        <mxCell id="nrOoguIhXEerUuoo3uGu-55" value="Deploy" style="rounded=1;whiteSpace=wrap;html=1;strokeColor=default;align=center;verticalAlign=middle;fontFamily=Helvetica;fontSize=11;fontColor=default;labelBackgroundColor=none;resizable=1;fillColor=none;gradientColor=none;strokeWidth=2;fontStyle=1" parent="1" vertex="1">
          <mxGeometry x="140" y="600" width="120" height="60" as="geometry" />
        </mxCell>
        <mxCell id="nrOoguIhXEerUuoo3uGu-56" value="Generate report" style="rounded=1;whiteSpace=wrap;html=1;strokeColor=default;align=center;verticalAlign=middle;fontFamily=Helvetica;fontSize=11;fontColor=default;labelBackgroundColor=none;resizable=1;fillColor=none;gradientColor=none;strokeWidth=2;fontStyle=1" parent="1" vertex="1">
          <mxGeometry x="275" y="600" width="120" height="60" as="geometry" />
        </mxCell>
        <mxCell id="nrOoguIhXEerUuoo3uGu-59" style="edgeStyle=none;shape=connector;rounded=0;orthogonalLoop=1;jettySize=auto;html=1;strokeColor=default;strokeWidth=2;align=center;verticalAlign=middle;fontFamily=Helvetica;fontSize=11;fontColor=default;labelBackgroundColor=none;resizable=1;startFill=0;endArrow=open;endFill=0;fontStyle=1" parent="1" source="nrOoguIhXEerUuoo3uGu-55" edge="1">
          <mxGeometry relative="1" as="geometry">
            <mxPoint x="200" y="730" as="targetPoint" />
          </mxGeometry>
        </mxCell>
        <mxCell id="nrOoguIhXEerUuoo3uGu-60" style="edgeStyle=none;shape=connector;rounded=0;orthogonalLoop=1;jettySize=auto;html=1;strokeColor=default;strokeWidth=2;align=center;verticalAlign=middle;fontFamily=Helvetica;fontSize=11;fontColor=default;labelBackgroundColor=none;resizable=1;startFill=0;endArrow=open;endFill=0;fontStyle=1" parent="1" source="nrOoguIhXEerUuoo3uGu-56" edge="1">
          <mxGeometry relative="1" as="geometry">
            <mxPoint x="336" y="730" as="targetPoint" />
          </mxGeometry>
        </mxCell>
        <mxCell id="nrOoguIhXEerUuoo3uGu-61" style="edgeStyle=none;shape=connector;rounded=0;orthogonalLoop=1;jettySize=auto;html=1;entryX=0.118;entryY=0.2;entryDx=0;entryDy=0;entryPerimeter=0;strokeColor=default;strokeWidth=2;align=center;verticalAlign=middle;fontFamily=Helvetica;fontSize=11;fontColor=default;labelBackgroundColor=none;resizable=1;startFill=0;endArrow=open;endFill=0;exitX=0.5;exitY=1;exitDx=0;exitDy=0;fontStyle=1" parent="1" source="nrOoguIhXEerUuoo3uGu-35" target="nrOoguIhXEerUuoo3uGu-31" edge="1">
          <mxGeometry relative="1" as="geometry" />
        </mxCell>
        <mxCell id="nrOoguIhXEerUuoo3uGu-62" value="SonarQube" style="whiteSpace=wrap;html=1;fontSize=11;fillColor=none;rounded=1;labelBackgroundColor=none;resizable=1;gradientColor=none;strokeWidth=2;fontStyle=1" parent="1" vertex="1">
          <mxGeometry x="500" y="350" width="120" height="60" as="geometry" />
        </mxCell>
        <mxCell id="nrOoguIhXEerUuoo3uGu-65" style="edgeStyle=none;shape=connector;rounded=0;orthogonalLoop=1;jettySize=auto;html=1;entryX=0.884;entryY=0.2;entryDx=0;entryDy=0;entryPerimeter=0;strokeColor=default;strokeWidth=2;align=center;verticalAlign=middle;fontFamily=Helvetica;fontSize=11;fontColor=default;labelBackgroundColor=none;resizable=1;startFill=0;endArrow=open;endFill=0;fontStyle=1" parent="1" source="nrOoguIhXEerUuoo3uGu-62" target="nrOoguIhXEerUuoo3uGu-31" edge="1">
          <mxGeometry relative="1" as="geometry" />
        </mxCell>
        <mxCell id="nrOoguIhXEerUuoo3uGu-66" value="" style="ellipse;html=1;shape=endState;fillColor=#000000;strokeColor=#000000;align=center;verticalAlign=middle;fontFamily=Helvetica;fontSize=11;fontColor=default;labelBackgroundColor=none;resizable=1;fontStyle=1" parent="1" vertex="1">
          <mxGeometry x="130" y="770" width="30" height="30" as="geometry" />
        </mxCell>
      </root>
    </mxGraphModel>
  </diagram>
  <diagram id="o5pi8LFHx6Shcp67mcV8" name="module">
    <mxGraphModel dx="786" dy="516" grid="0" gridSize="10" guides="1" tooltips="1" connect="1" arrows="1" fold="1" page="0" pageScale="1" pageWidth="850" pageHeight="1100" math="0" shadow="0">
      <root>
        <mxCell id="0" />
        <mxCell id="1" parent="0" />
        <mxCell id="FxdU6BITIwW-ha4kGhLs-8" value="Serilog" style="edgeStyle=orthogonalEdgeStyle;shape=connector;rounded=0;orthogonalLoop=1;jettySize=auto;html=1;dashed=1;dashPattern=8 8;strokeColor=default;align=center;verticalAlign=middle;fontFamily=Helvetica;fontSize=11;fontColor=default;labelBackgroundColor=default;endArrow=open;endFill=0;exitX=0.25;exitY=1;exitDx=0;exitDy=0;exitPerimeter=0;" parent="1" source="GfWZE7OJxPC9WvVhSMBx-1" target="FxdU6BITIwW-ha4kGhLs-4" edge="1">
          <mxGeometry x="0.0165" y="-10" relative="1" as="geometry">
            <mxPoint as="offset" />
          </mxGeometry>
        </mxCell>
        <mxCell id="FxdU6BITIwW-ha4kGhLs-9" value="EF Core" style="edgeStyle=orthogonalEdgeStyle;shape=connector;rounded=0;orthogonalLoop=1;jettySize=auto;html=1;exitX=0.75;exitY=1;exitDx=0;exitDy=0;exitPerimeter=0;dashed=1;dashPattern=8 8;strokeColor=default;align=center;verticalAlign=middle;fontFamily=Helvetica;fontSize=11;fontColor=default;labelBackgroundColor=default;endArrow=open;endFill=0;" parent="1" source="GfWZE7OJxPC9WvVhSMBx-1" target="GfWZE7OJxPC9WvVhSMBx-4" edge="1">
          <mxGeometry x="0.2378" y="11" relative="1" as="geometry">
            <mxPoint as="offset" />
          </mxGeometry>
        </mxCell>
        <mxCell id="GfWZE7OJxPC9WvVhSMBx-1" value="API&lt;br&gt;&lt;span style=&quot;font-weight: normal;&quot;&gt;.NET Minimal Api&lt;/span&gt;" style="shape=folder;fontStyle=1;spacingTop=10;tabWidth=40;tabHeight=14;tabPosition=left;html=1;whiteSpace=wrap;" parent="1" vertex="1">
          <mxGeometry x="136" y="209" width="100" height="52" as="geometry" />
        </mxCell>
        <mxCell id="FxdU6BITIwW-ha4kGhLs-1" value="HTTP(S)" style="edgeStyle=orthogonalEdgeStyle;shape=connector;rounded=0;orthogonalLoop=1;jettySize=auto;html=1;dashed=1;dashPattern=8 8;strokeColor=default;align=center;verticalAlign=middle;fontFamily=Helvetica;fontSize=11;fontColor=default;labelBackgroundColor=default;endArrow=open;endFill=0;" parent="1" source="GfWZE7OJxPC9WvVhSMBx-2" target="GfWZE7OJxPC9WvVhSMBx-1" edge="1">
          <mxGeometry x="-0.0081" y="-13" relative="1" as="geometry">
            <mxPoint y="-27" as="offset" />
          </mxGeometry>
        </mxCell>
        <mxCell id="GfWZE7OJxPC9WvVhSMBx-2" value="Client&lt;br&gt;&lt;span style=&quot;font-weight: normal;&quot;&gt;.NET Blazor&lt;/span&gt;" style="shape=folder;fontStyle=1;spacingTop=10;tabWidth=40;tabHeight=14;tabPosition=left;html=1;whiteSpace=wrap;" parent="1" vertex="1">
          <mxGeometry x="5" y="209" width="70" height="51" as="geometry" />
        </mxCell>
        <mxCell id="GfWZE7OJxPC9WvVhSMBx-4" value="Database&lt;br&gt;&lt;span style=&quot;font-weight: normal;&quot;&gt;Postgres&lt;/span&gt;" style="shape=folder;fontStyle=1;spacingTop=10;tabWidth=40;tabHeight=14;tabPosition=left;html=1;whiteSpace=wrap;" parent="1" vertex="1">
          <mxGeometry x="215" y="327" width="70" height="50" as="geometry" />
        </mxCell>
        <mxCell id="FxdU6BITIwW-ha4kGhLs-7" value="WebAppFactory" style="edgeStyle=orthogonalEdgeStyle;shape=connector;rounded=0;orthogonalLoop=1;jettySize=auto;html=1;dashed=1;dashPattern=8 8;strokeColor=default;align=center;verticalAlign=middle;fontFamily=Helvetica;fontSize=11;fontColor=default;labelBackgroundColor=default;endArrow=open;endFill=0;" parent="1" source="GfWZE7OJxPC9WvVhSMBx-5" target="GfWZE7OJxPC9WvVhSMBx-1" edge="1">
          <mxGeometry x="-0.0347" y="-16" relative="1" as="geometry">
            <mxPoint as="offset" />
          </mxGeometry>
        </mxCell>
        <mxCell id="GfWZE7OJxPC9WvVhSMBx-5" value="Integration tests&lt;br&gt;&lt;span style=&quot;font-weight: normal;&quot;&gt;xUnit, &lt;br&gt;Respawn, Testcontainers&lt;/span&gt;" style="shape=folder;fontStyle=1;spacingTop=10;tabWidth=40;tabHeight=14;tabPosition=left;html=1;whiteSpace=wrap;" parent="1" vertex="1">
          <mxGeometry x="337" y="196.75" width="111" height="75.5" as="geometry" />
        </mxCell>
        <mxCell id="FxdU6BITIwW-ha4kGhLs-4" value="Monitor&lt;div&gt;&lt;span style=&quot;font-weight: normal;&quot;&gt;Seq&lt;/span&gt;&lt;/div&gt;" style="shape=folder;fontStyle=1;spacingTop=10;tabWidth=40;tabHeight=14;tabPosition=left;html=1;whiteSpace=wrap;" parent="1" vertex="1">
          <mxGeometry x="66" y="327" width="70" height="50" as="geometry" />
        </mxCell>
        <mxCell id="FxdU6BITIwW-ha4kGhLs-10" value="&lt;span&gt;Legend&lt;/span&gt;" style="rounded=0;whiteSpace=wrap;html=1;fontFamily=Helvetica;fontSize=13;fontColor=default;labelBackgroundColor=default;align=left;verticalAlign=top;fontStyle=4" parent="1" vertex="1">
          <mxGeometry x="5" y="44" width="120" height="139" as="geometry" />
        </mxCell>
        <mxCell id="FxdU6BITIwW-ha4kGhLs-11" value="Module&lt;br&gt;&lt;span style=&quot;font-weight: normal;&quot;&gt;Main technologies&lt;/span&gt;" style="shape=folder;fontStyle=1;spacingTop=10;tabWidth=40;tabHeight=14;tabPosition=left;html=1;whiteSpace=wrap;fontFamily=Helvetica;fontSize=11;fontColor=default;labelBackgroundColor=default;" parent="1" vertex="1">
          <mxGeometry x="17" y="76" width="96" height="50" as="geometry" />
        </mxCell>
        <mxCell id="FxdU6BITIwW-ha4kGhLs-14" value="Dependency" style="edgeStyle=orthogonalEdgeStyle;shape=connector;rounded=0;orthogonalLoop=1;jettySize=auto;html=1;dashed=1;dashPattern=8 8;strokeColor=default;align=center;verticalAlign=middle;fontFamily=Helvetica;fontSize=11;fontColor=default;labelBackgroundColor=default;endArrow=open;endFill=0;" parent="1" edge="1">
          <mxGeometry x="0.0018" y="14" relative="1" as="geometry">
            <mxPoint x="81.88888888888891" y="163.99999999999994" as="targetPoint" />
            <mxPoint x="20" y="164" as="sourcePoint" />
            <mxPoint as="offset" />
          </mxGeometry>
        </mxCell>
        <mxCell id="FxdU6BITIwW-ha4kGhLs-15" value="Use own &lt;br&gt;(but identical)&lt;br&gt;instance of" style="edgeStyle=orthogonalEdgeStyle;shape=connector;rounded=0;orthogonalLoop=1;jettySize=auto;html=1;entryX=0;entryY=0;entryDx=70;entryDy=32;entryPerimeter=0;dashed=1;dashPattern=8 8;strokeColor=default;align=center;verticalAlign=middle;fontFamily=Helvetica;fontSize=11;fontColor=default;labelBackgroundColor=default;endArrow=open;endFill=0;" parent="1" source="GfWZE7OJxPC9WvVhSMBx-5" target="GfWZE7OJxPC9WvVhSMBx-4" edge="1">
          <mxGeometry x="-0.5364" y="-37" relative="1" as="geometry">
            <Array as="points">
              <mxPoint x="374" y="359" />
            </Array>
            <mxPoint as="offset" />
          </mxGeometry>
        </mxCell>
      </root>
    </mxGraphModel>
  </diagram>
</mxfile>
